<svg version="1.1" id="Layer_1" xmlns="http://www.w3.org/2000/svg" xmlns:xlink="http://www.w3.org/1999/xlink" x="0px" y="0px"
	 width="100%" viewBox="0 0 512 512" enable-background="new 0 0 512 512" xml:space="preserve">
<path fill="#010101" opacity="1.000000" stroke="none" 
	d="
M513.000000,204.000000 
	C513.000000,307.308228 513.000000,410.116455 513.000000,512.962341 
	C342.400085,512.962341 171.800186,512.962341 1.100134,512.962341 
	C1.100134,342.441803 1.100134,171.883514 1.100134,1.162619 
	C171.666534,1.162619 342.333252,1.162619 513.000000,1.162619 
	C513.000000,68.533112 513.000000,136.016556 513.000000,204.000000 
M40.891903,309.215057 
	C43.812370,309.215057 46.732838,309.215057 49.885189,309.215057 
	C49.885189,300.411652 50.205620,292.262787 49.801960,284.149933 
	C49.325466,274.573212 42.151024,267.546173 32.446243,266.624634 
	C28.025475,266.066376 26.495249,268.376617 26.529863,272.431183 
	C26.585005,278.890289 26.539133,285.350220 26.537754,291.809814 
	C26.536463,297.855743 26.537477,303.901703 26.537477,310.113312 
	C31.481426,309.695160 35.739128,309.335022 40.891903,309.215057 
M43.082924,324.289886 
	C40.252670,324.306976 37.403839,324.120697 34.595467,324.377289 
	C23.987339,325.346527 16.139755,333.307678 16.064440,343.697632 
	C15.894210,367.180542 15.906483,390.666138 16.052395,414.149353 
	C16.113926,424.052063 23.195980,431.935028 33.039127,433.261322 
	C36.616478,433.743347 40.313904,433.334167 44.853405,433.636444 
	C51.336601,433.651398 57.822330,433.783844 64.302200,433.644287 
	C69.533455,433.531647 73.254173,430.774902 73.868637,426.578766 
	C74.568123,421.802032 72.039597,419.098846 67.978279,416.739899 
	C65.636398,415.379608 63.007271,412.209320 62.977303,409.822693 
	C62.947445,407.444824 65.527298,404.292694 67.821899,402.804443 
	C71.096863,400.680328 73.908142,398.709961 73.981049,394.537628 
	C74.057945,390.137054 71.232452,388.022034 67.721870,385.839539 
	C65.430344,384.414917 63.047096,381.232086 62.951721,378.750458 
	C62.867012,376.546387 65.416283,373.446686 67.628769,372.129974 
	C71.182999,370.014709 74.005684,367.878601 73.983749,363.486511 
	C73.962883,359.308289 71.162590,357.308899 67.898544,355.168060 
	C65.597473,353.658844 62.982906,350.567444 62.985535,348.185211 
	C62.988159,345.801239 65.576736,342.553070 67.908997,341.230011 
	C72.011215,338.902832 74.513542,336.199158 73.888130,331.433655 
	C73.342438,327.275543 69.566025,324.373810 64.388733,324.288849 
	C57.585789,324.177277 50.777157,324.412994 43.082924,324.289886 
M467.506531,70.807785 
	C429.217163,43.879063 374.952881,62.045933 360.380035,106.795998 
	C358.626678,112.180153 357.159271,117.184975 349.388214,116.413330 
	C349.388214,122.510956 349.271851,127.822487 349.477905,133.121475 
	C349.523895,134.305008 350.558105,136.327377 351.381805,136.461380 
	C356.839203,137.349243 357.804016,141.478577 358.940399,145.788727 
	C363.714050,163.894531 373.556793,178.351318 390.148865,188.717697 
	C396.517670,191.487976 402.781158,194.543900 409.287109,196.942108 
	C414.933960,199.023636 419.111938,202.318848 421.516815,207.849197 
	C423.357544,212.082153 425.263397,216.286835 427.408081,221.105850 
	C429.231354,216.947220 430.905090,213.517166 432.257111,209.964661 
	C435.008911,202.733963 439.979340,198.361069 447.544525,196.358688 
	C457.823181,193.638077 466.744049,188.245117 474.686157,181.175018 
	C508.234253,151.310410 504.841064,95.249481 467.506531,70.807785 
M257.895721,106.073273 
	C260.057770,106.091911 262.221069,106.069527 264.381653,106.135696 
	C281.101990,106.647789 294.435455,117.224609 298.494049,133.174942 
	C300.235535,140.019028 301.011932,140.525894 308.742035,139.307190 
	C308.742035,131.984344 308.794037,124.536209 308.732941,117.089005 
	C308.482361,86.547661 297.308594,61.037117 273.204529,41.872185 
	C257.988617,29.774139 240.548157,23.032946 220.278580,22.296694 
	C219.827316,22.307972 219.376038,22.319248 218.030014,22.084724 
	C209.711105,22.157621 201.392212,22.230518 192.214249,22.212450 
	C175.946335,22.930317 160.730057,27.211916 146.946594,35.984570 
	C142.361954,38.902527 138.037155,40.442753 133.395172,36.235859 
	C131.267151,38.036003 129.302353,39.572056 127.486382,41.267517 
	C125.419395,43.197342 123.280411,45.113976 121.584122,47.348629 
	C120.794968,48.388252 120.305740,50.509701 120.837883,51.547081 
	C122.904175,55.575233 121.827766,58.835506 119.406685,62.198849 
	C102.549294,85.616936 101.867310,112.351585 103.434128,139.558640 
	C111.446190,140.298615 111.203163,140.229828 113.257668,132.940765 
	C117.209488,118.920326 126.281937,109.988647 140.679718,107.007294 
	C144.384659,106.240112 148.277985,106.161766 152.086105,106.148254 
	C187.052475,106.024193 222.019165,105.984123 257.895721,106.073273 
M248.063217,121.163704 
	C215.065262,121.149323 182.067276,121.100647 149.069366,121.137154 
	C135.540665,121.152122 127.204323,129.462433 127.167671,142.939606 
	C127.107399,165.104813 127.098671,187.270477 127.163910,209.435669 
	C127.257057,241.083435 152.503754,271.232819 193.286957,268.361511 
	C194.509171,268.275482 195.945679,267.215820 196.771484,266.196350 
	C200.851044,261.160126 206.077621,258.947998 212.487946,258.980804 
	C220.983139,259.024323 229.479248,258.884399 238.901855,258.989777 
	C243.227524,258.997620 247.570587,258.767059 251.873962,259.080688 
	C256.140167,259.391632 259.469788,258.080719 262.713409,255.323532 
	C275.645081,244.331146 283.640289,230.601547 284.069336,213.582748 
	C284.681366,189.308121 284.498901,165.006805 284.268311,140.720581 
	C284.163818,129.715225 275.907318,121.695755 264.929260,121.198479 
	C259.626587,120.958282 254.298462,121.279732 248.063217,121.163704 
M470.878693,491.900879 
	C475.874176,491.920074 480.869629,491.955139 485.865112,491.955017 
	C495.377747,491.954803 497.997589,489.325348 497.997650,479.812469 
	C497.998199,413.700287 497.998016,347.588104 497.998047,281.475922 
	C497.998047,280.476776 497.992554,279.477600 497.998505,278.478485 
	C498.016663,275.414673 496.633850,273.911163 493.433929,273.973328 
	C486.277710,274.112335 479.118835,274.112671 471.035950,274.047394 
	C385.461334,274.031403 299.886688,274.044739 214.312225,273.923492 
	C209.405685,273.916565 208.008499,275.790894 208.024109,280.433167 
	C208.147308,317.060120 208.100006,353.687653 208.093369,390.315002 
	C208.092102,397.326935 207.250977,398.471436 199.953110,400.469238 
	C194.892975,399.295105 193.047577,395.970001 193.085907,390.953400 
	C193.196655,376.456757 193.127747,361.958618 193.099594,347.461151 
	C193.096954,346.103058 192.883713,344.745331 192.709351,342.694824 
	C178.923492,354.845337 165.761063,366.352264 152.719620,377.994690 
	C148.477264,381.781952 143.918671,383.384460 138.542999,381.072906 
	C132.951279,378.668457 130.961014,374.085175 131.002365,368.199677 
	C131.098373,354.536011 131.039139,340.871216 131.019638,327.206879 
	C131.017151,325.460815 130.876389,323.714935 130.775482,321.418304 
	C119.656418,325.038513 109.140114,328.652374 98.498978,331.850922 
	C92.753799,333.577820 87.531616,335.346100 86.829330,342.482422 
	C86.724594,343.546692 85.456703,344.476532 85.281570,345.558350 
	C85.004211,347.271698 84.539581,349.435455 85.294609,350.757141 
	C90.206100,359.354950 90.312416,367.724792 85.327530,376.337677 
	C84.553642,377.674774 84.520264,380.212311 85.282906,381.541565 
	C90.217300,390.141907 90.303223,398.510437 85.318596,407.124207 
	C84.551117,408.450470 84.545692,410.953400 85.289444,412.306702 
	C94.472328,429.015900 84.798744,447.624146 65.823128,448.536743 
	C52.405399,449.182037 38.931610,448.661652 24.959650,448.661652 
	C24.959650,458.781036 24.937592,470.242706 24.967604,481.704254 
	C24.986794,489.033112 27.870674,491.890137 35.332127,491.906219 
	C51.829269,491.941772 68.326538,491.920135 84.823753,491.921783 
	C87.275993,491.922028 89.728241,491.921814 92.795769,491.921814 
	C92.795769,487.601837 92.765213,483.815552 92.801186,480.029907 
	C92.939690,465.451202 102.393158,455.981262 116.953568,455.952545 
	C140.449524,455.906189 163.945633,455.935028 187.441666,455.932159 
	C189.205643,455.931946 190.969604,455.932159 193.113235,455.932159 
	C193.113235,446.759033 193.117065,438.283691 193.111664,429.808350 
	C193.108856,425.403351 194.487579,421.946716 200.028290,420.910980 
	C206.071548,421.138428 208.063370,423.213013 208.077606,429.652649 
	C208.119171,448.472717 208.092758,467.292908 208.092972,486.113068 
	C208.093002,487.883728 208.092987,489.654388 208.092987,491.942200 
	C210.720871,491.942200 212.678162,491.942200 214.635452,491.942200 
	C297.577393,491.941925 380.519318,491.943176 463.461273,491.933014 
	C465.622437,491.932739 467.783600,491.806976 470.878693,491.900879 
M109.943436,473.524292 
	C108.963806,479.387146 107.984177,485.249969 106.917053,491.636475 
	C136.437881,491.636475 164.438858,491.636475 192.675934,491.636475 
	C192.675934,484.710449 192.675934,478.030792 192.675934,471.483551 
	C191.968719,471.247528 191.661041,471.055298 191.353088,471.054810 
	C166.242493,471.014404 141.131699,470.947723 116.021599,471.047424 
	C114.181282,471.054749 112.345772,472.273163 109.943436,473.524292 
M178.440857,321.060974 
	C176.469391,319.269867 174.602402,317.344879 172.508591,315.710510 
	C162.732468,308.079681 154.617783,299.649994 157.222931,285.721344 
	C157.241241,285.623413 157.013535,285.479492 156.876953,285.331238 
	C149.276337,288.811707 145.258362,293.951782 145.822220,303.094635 
	C146.589508,315.535828 146.013809,328.059845 146.013931,340.548340 
	C146.013992,347.968445 146.013931,355.388550 146.013931,363.913422 
	C159.901306,351.629181 172.976334,340.063538 186.263519,328.310211 
	C183.583786,325.825409 181.272675,323.682434 178.440857,321.060974 
M318.069305,200.508163 
	C325.619232,190.361099 324.703156,179.070099 321.240692,168.127853 
	C318.314392,158.879990 308.079010,153.481659 299.636658,155.197784 
	C299.636658,172.913483 299.636658,190.647797 299.636658,208.612686 
	C307.009583,208.794373 312.850281,206.231018 318.069305,200.508163 
M103.483139,155.793488 
	C96.226120,158.370865 90.751961,163.372375 89.482956,170.751526 
	C88.269905,177.805420 88.175339,185.434891 89.500046,192.450562 
	C91.404625,202.537277 101.471939,208.974060 111.847778,208.317169 
	C111.847778,190.450836 111.847778,172.576508 111.847778,154.269669 
	C109.054436,154.710266 106.629662,155.092712 103.483139,155.793488 
M187.457092,309.019989 
	C189.111374,310.518982 190.765671,312.017975 192.922058,313.971954 
	C192.922058,303.342163 192.922058,293.622040 192.922058,283.672272 
	C186.036850,283.327942 179.363556,282.994202 172.909439,282.671448 
	C170.789719,291.004211 172.664200,297.510040 179.895554,302.230957 
	C182.503922,303.933777 184.605820,306.412445 187.457092,309.019989 
z"/>
<path fill="#596B75" opacity="1.000000" stroke="none" 
	d="
M200.622971,400.783966 
	C207.250977,398.471436 208.092102,397.326935 208.093369,390.315002 
	C208.100006,353.687653 208.147308,317.060120 208.024109,280.433167 
	C208.008499,275.790894 209.405685,273.916565 214.312225,273.923492 
	C299.886688,274.044739 385.461334,274.031403 471.510162,274.563690 
	C471.989594,340.605774 472.054138,406.131714 471.910034,471.657196 
	C471.895325,478.352783 470.629822,485.045593 469.944763,491.739746 
	C467.783600,491.806976 465.622437,491.932739 463.461273,491.933014 
	C380.519318,491.943176 297.577393,491.941925 214.635452,491.942200 
	C212.678162,491.942200 210.720871,491.942200 208.092987,491.942200 
	C208.092987,489.654388 208.093002,487.883728 208.092972,486.113068 
	C208.092758,467.292908 208.119171,448.472717 208.077606,429.652649 
	C208.063370,423.213013 206.071548,421.138428 199.836533,420.550232 
	C200.068970,419.352081 200.856506,418.515625 200.858688,417.677124 
	C200.873352,412.046326 200.721100,406.415070 200.622971,400.783966 
M392.144257,360.157837 
	C389.447876,359.365234 386.767700,357.953796 384.052429,357.882629 
	C368.919739,357.486084 353.778870,357.327301 338.640137,357.274567 
	C332.667145,357.253754 326.617371,357.204285 320.734283,358.066589 
	C308.575195,359.848724 299.770569,371.107941 300.054321,383.696442 
	C300.328766,395.871338 309.694672,407.364044 321.733734,407.837128 
	C342.161896,408.639923 362.658905,408.667664 383.092285,407.984406 
	C394.778381,407.593597 403.316742,399.010101 405.672241,388.006165 
	C407.956329,377.335876 402.965057,366.688293 392.144257,360.157837 
z"/>
<path fill="#27A5FC" opacity="1.000000" stroke="none" 
	d="
M200.288040,400.626587 
	C200.721100,406.415070 200.873352,412.046326 200.858688,417.677124 
	C200.856506,418.515625 200.068970,419.352081 199.443329,420.482391 
	C194.487579,421.946716 193.108856,425.403351 193.111664,429.808350 
	C193.117065,438.283691 193.113235,446.759033 193.113235,455.932159 
	C190.969604,455.932159 189.205643,455.931946 187.441666,455.932159 
	C163.945633,455.935028 140.449524,455.906189 116.953568,455.952545 
	C102.393158,455.981262 92.939690,465.451202 92.801186,480.029907 
	C92.765213,483.815552 92.795769,487.601837 92.795769,491.921814 
	C89.728241,491.921814 87.275993,491.922028 84.823753,491.921783 
	C68.326538,491.920135 51.829269,491.941772 35.332127,491.906219 
	C27.870674,491.890137 24.986794,489.033112 24.967604,481.704254 
	C24.937592,470.242706 24.959650,458.781036 24.959650,448.661652 
	C38.931610,448.661652 52.405399,449.182037 65.823128,448.536743 
	C84.798744,447.624146 94.472328,429.015900 85.289444,412.306702 
	C84.545692,410.953400 84.551117,408.450470 85.318596,407.124207 
	C90.303223,398.510437 90.217300,390.141907 85.282906,381.541565 
	C84.520264,380.212311 84.553642,377.674774 85.327530,376.337677 
	C90.312416,367.724792 90.206100,359.354950 85.294609,350.757141 
	C84.539581,349.435455 85.004211,347.271698 85.281570,345.558350 
	C85.456703,344.476532 86.724594,343.546692 86.829330,342.482422 
	C87.531616,335.346100 92.753799,333.577820 98.498978,331.850922 
	C109.140114,328.652374 119.656418,325.038513 130.775482,321.418304 
	C130.876389,323.714935 131.017151,325.460815 131.019638,327.206879 
	C131.039139,340.871216 131.098373,354.536011 131.002365,368.199677 
	C130.961014,374.085175 132.951279,378.668457 138.542999,381.072906 
	C143.918671,383.384460 148.477264,381.781952 152.719620,377.994690 
	C165.761063,366.352264 178.923492,354.845337 192.709351,342.694824 
	C192.883713,344.745331 193.096954,346.103058 193.099594,347.461151 
	C193.127747,361.958618 193.196655,376.456757 193.085907,390.953400 
	C193.047577,395.970001 194.892975,399.295105 200.288040,400.626587 
z"/>
<path fill="#FDDECF" opacity="1.000000" stroke="none" 
	d="
M237.974976,258.823303 
	C229.479248,258.884399 220.983139,259.024323 212.487946,258.980804 
	C206.077621,258.947998 200.851044,261.160126 196.771484,266.196350 
	C195.945679,267.215820 194.509171,268.275482 193.286957,268.361511 
	C152.503754,271.232819 127.257057,241.083435 127.163910,209.435669 
	C127.098671,187.270477 127.107399,165.104813 127.167671,142.939606 
	C127.204323,129.462433 135.540665,121.152122 149.069366,121.137154 
	C182.067276,121.100647 215.065262,121.149323 248.576508,121.590561 
	C253.590469,129.162521 257.353699,136.520645 255.505539,145.234558 
	C248.211212,140.751572 242.643051,143.703506 242.426178,151.890533 
	C242.316010,156.049500 242.424011,160.213852 242.394470,164.375488 
	C242.368484,168.034485 242.953049,171.332184 246.657471,173.227814 
	C250.186508,175.033691 253.059448,173.611633 255.907654,172.084534 
	C255.966934,185.408401 256.332886,198.251022 255.914276,211.068054 
	C255.375031,227.578751 250.409714,242.495514 238.381683,254.524261 
	C237.597397,255.308578 238.081085,257.360809 237.974976,258.823303 
M231.936874,242.496628 
	C239.242950,236.877396 243.880524,229.665237 245.146515,220.426514 
	C246.165924,212.987213 244.260391,208.963791 239.287567,208.124115 
	C234.397171,207.298355 231.627945,210.390518 230.348312,218.105804 
	C228.786316,227.523560 221.645905,233.768997 212.092651,233.974670 
	C207.932007,234.064255 203.766083,234.070847 199.605667,233.977127 
	C189.526520,233.750092 182.077377,226.761292 181.056076,216.672928 
	C180.462753,210.812042 177.496262,207.667618 172.933838,208.063492 
	C168.198090,208.474411 165.450577,212.434265 166.143738,218.375534 
	C167.527786,230.238388 172.935104,240.155167 183.970993,244.857605 
	C199.735458,251.574936 215.896042,251.802612 231.936874,242.496628 
M201.013870,174.488708 
	C201.205475,170.510498 204.167389,170.043640 207.200958,169.344070 
	C211.595291,168.330673 213.775467,165.134903 213.091812,160.951920 
	C212.391266,156.665619 209.594467,154.794830 205.394302,154.727722 
	C195.498276,154.569611 186.598434,163.001801 186.011642,173.105255 
	C185.387695,183.848297 193.324722,193.330612 203.620636,194.142563 
	C209.019745,194.568359 212.342865,192.516754 213.074188,188.306198 
	C213.880829,183.662064 211.445892,180.863220 206.072800,179.191513 
	C204.176620,178.601562 202.712219,176.623901 201.013870,174.488708 
M165.351074,143.935913 
	C159.085434,141.935623 154.574554,144.356842 154.221100,150.321655 
	C153.896469,155.800537 153.939957,161.325531 154.227844,166.808868 
	C154.468185,171.386597 157.960327,174.265778 162.190399,174.000793 
	C166.176590,173.751083 168.968658,170.790878 169.087387,166.320053 
	C169.224472,161.158157 169.427551,155.963989 168.987396,150.836578 
	C168.795380,148.599854 167.074249,146.494385 165.351074,143.935913 
z"/>
<path fill="#B95D4C" opacity="1.000000" stroke="none" 
	d="
M218.924774,22.330524 
	C219.376038,22.319248 219.827316,22.307972 220.628784,22.724339 
	C221.558762,23.902124 222.037796,24.765184 222.733337,25.385483 
	C233.268509,34.781082 242.090271,45.627701 247.847183,58.479523 
	C254.562012,73.469841 257.958984,89.332680 256.985748,105.919571 
	C222.019165,105.984123 187.052475,106.024193 152.086105,106.148254 
	C148.277985,106.161766 144.384659,106.240112 140.679718,107.007294 
	C126.281937,109.988647 117.209488,118.920326 113.257668,132.940765 
	C111.203163,140.229828 111.446190,140.298615 103.434128,139.558640 
	C101.867310,112.351585 102.549294,85.616936 119.406685,62.198849 
	C121.827766,58.835506 122.904175,55.575233 120.837883,51.547081 
	C120.305740,50.509701 120.794968,48.388252 121.584122,47.348629 
	C123.280411,45.113976 125.419395,43.197342 127.486382,41.267517 
	C129.302353,39.572056 131.267151,38.036003 133.395172,36.235859 
	C138.037155,40.442753 142.361954,38.902527 146.946594,35.984570 
	C160.730057,27.211916 175.946335,22.930317 192.974655,22.486702 
	C202.131638,22.617479 210.528198,22.474003 218.924774,22.330524 
z"/>
<path fill="#FCDF78" opacity="1.000000" stroke="none" 
	d="
M389.803741,188.113983 
	C373.556793,178.351318 363.714050,163.894531 358.940399,145.788727 
	C357.804016,141.478577 356.839203,137.349243 351.381805,136.461380 
	C350.558105,136.327377 349.523895,134.305008 349.477905,133.121475 
	C349.271851,127.822487 349.388214,122.510956 349.388214,116.413330 
	C357.159271,117.184975 358.626678,112.180153 360.380035,106.795998 
	C374.952881,62.045933 429.217163,43.879063 467.757141,71.419357 
	C470.747620,79.133331 473.870728,86.115150 476.151001,93.362152 
	C481.635162,110.791405 479.148468,127.790085 472.110016,144.244873 
	C467.869629,154.158234 461.137787,162.401398 453.031921,169.422562 
	C437.110565,183.213425 418.784302,189.646255 397.575012,187.198318 
	C395.053406,186.907288 392.397430,187.780472 389.803741,188.113983 
M425.040741,155.761551 
	C416.973328,153.986801 412.279175,149.046936 411.165314,140.836746 
	C410.352570,134.845871 407.532593,131.763138 403.081177,132.169525 
	C398.182220,132.616791 395.472900,136.912674 396.268585,142.971497 
	C398.396942,159.178726 411.589050,170.971649 427.543457,170.929291 
	C443.465729,170.887009 456.576843,158.865707 458.398041,142.639465 
	C459.067047,136.678467 456.581604,132.707962 451.845947,132.172592 
	C447.435120,131.673965 444.515198,134.690964 443.592468,140.700485 
	C442.066376,150.639648 436.042328,155.788925 425.040741,155.761551 
M398.145935,118.392769 
	C404.067322,120.190414 408.323486,118.546219 409.026886,113.635429 
	C409.561890,109.899857 409.787170,105.843063 408.842285,102.275627 
	C408.270264,100.116005 405.345642,97.390717 403.221008,97.145409 
	C400.807281,96.866714 397.344360,98.417366 395.697388,100.338570 
	C392.707886,103.825806 394.258209,114.288483 398.145935,118.392769 
M445.252136,111.024063 
	C446.153412,116.877167 448.674683,119.553902 453.116364,119.373207 
	C457.805511,119.182442 460.182068,116.066841 460.247864,109.953987 
	C460.271088,107.796532 460.335968,105.626244 460.146332,103.482651 
	C459.790375,99.458076 457.509491,97.065338 453.470032,96.763802 
	C449.210846,96.445847 446.405579,98.589775 445.582397,102.729439 
	C445.104126,105.134811 445.335907,107.681374 445.252136,111.024063 
z"/>
<path fill="#475A61" opacity="1.000000" stroke="none" 
	d="
M470.411743,491.820312 
	C470.629822,485.045593 471.895325,478.352783 471.910034,471.657196 
	C472.054138,406.131714 471.989594,340.605774 471.972717,274.624756 
	C479.118835,274.112671 486.277710,274.112335 493.433929,273.973328 
	C496.633850,273.911163 498.016663,275.414673 497.998505,278.478485 
	C497.992554,279.477600 497.998047,280.476776 497.998047,281.475922 
	C497.998016,347.588104 497.998199,413.700287 497.997650,479.812469 
	C497.997589,489.325348 495.377747,491.954803 485.865112,491.955017 
	C480.869629,491.955139 475.874176,491.920074 470.411743,491.820312 
z"/>
<path fill="#A14E3D" opacity="1.000000" stroke="none" 
	d="
M257.440735,105.996422 
	C257.958984,89.332680 254.562012,73.469841 247.847183,58.479523 
	C242.090271,45.627701 233.268509,34.781082 222.733337,25.385483 
	C222.037796,24.765184 221.558762,23.902124 220.952454,22.829588 
	C240.548157,23.032946 257.988617,29.774139 273.204529,41.872185 
	C297.308594,61.037117 308.482361,86.547661 308.732941,117.089005 
	C308.794037,124.536209 308.742035,131.984344 308.742035,139.307190 
	C301.011932,140.525894 300.235535,140.019028 298.494049,133.174942 
	C294.435455,117.224609 281.101990,106.647789 264.381653,106.135696 
	C262.221069,106.069527 260.057770,106.091911 257.440735,105.996422 
z"/>
<path fill="#FBCCBE" opacity="1.000000" stroke="none" 
	d="
M238.438416,258.906525 
	C238.081085,257.360809 237.597397,255.308578 238.381683,254.524261 
	C250.409714,242.495514 255.375031,227.578751 255.914276,211.068054 
	C256.332886,198.251022 255.966934,185.408401 255.999695,171.733490 
	C258.285065,162.375244 258.434937,153.877441 255.844269,145.401733 
	C257.353699,136.520645 253.590469,129.162521 249.035828,121.682144 
	C254.298462,121.279732 259.626587,120.958282 264.929260,121.198479 
	C275.907318,121.695755 284.163818,129.715225 284.268311,140.720581 
	C284.498901,165.006805 284.681366,189.308121 284.069336,213.582748 
	C283.640289,230.601547 275.645081,244.331146 262.713409,255.323532 
	C259.469788,258.080719 256.140167,259.391632 251.873962,259.080688 
	C247.570587,258.767059 243.227524,258.997620 238.438416,258.906525 
z"/>
<path fill="#FEDFD0" opacity="1.000000" stroke="none" 
	d="
M43.956543,433.331665 
	C40.313904,433.334167 36.616478,433.743347 33.039127,433.261322 
	C23.195980,431.935028 16.113926,424.052063 16.052395,414.149353 
	C15.906483,390.666138 15.894210,367.180542 16.064440,343.697632 
	C16.139755,333.307678 23.987339,325.346527 34.595467,324.377289 
	C37.403839,324.120697 40.252670,324.306976 43.585056,324.717957 
	C50.357533,333.390045 51.292465,342.830200 51.112297,352.849945 
	C50.751083,372.938446 51.420559,393.052124 50.741871,413.124176 
	C50.547188,418.882050 47.202812,424.537415 45.270741,430.228973 
	C44.910664,431.289673 44.398514,432.298737 43.956543,433.331665 
z"/>
<path fill="#FBCF5D" opacity="1.000000" stroke="none" 
	d="
M389.976318,188.415833 
	C392.397430,187.780472 395.053406,186.907288 397.575012,187.198318 
	C418.784302,189.646255 437.110565,183.213425 453.031921,169.422562 
	C461.137787,162.401398 467.869629,154.158234 472.110016,144.244873 
	C479.148468,127.790085 481.635162,110.791405 476.151001,93.362152 
	C473.870728,86.115150 470.747620,79.133331 468.008301,71.665314 
	C504.841064,95.249481 508.234253,151.310410 474.686157,181.175018 
	C466.744049,188.245117 457.823181,193.638077 447.544525,196.358688 
	C439.979340,198.361069 435.008911,202.733963 432.257111,209.964661 
	C430.905090,213.517166 429.231354,216.947220 427.408081,221.105850 
	C425.263397,216.286835 423.357544,212.082153 421.516815,207.849197 
	C419.111938,202.318848 414.933960,199.023636 409.287109,196.942108 
	C402.781158,194.543900 396.517670,191.487976 389.976318,188.415833 
z"/>
<path fill="#F8CABC" opacity="1.000000" stroke="none" 
	d="
M44.404976,433.484039 
	C44.398514,432.298737 44.910664,431.289673 45.270741,430.228973 
	C47.202812,424.537415 50.547188,418.882050 50.741871,413.124176 
	C51.420559,393.052124 50.751083,372.938446 51.112297,352.849945 
	C51.292465,342.830200 50.357533,333.390045 44.029079,324.822723 
	C50.777157,324.412994 57.585789,324.177277 64.388733,324.288849 
	C69.566025,324.373810 73.342438,327.275543 73.888130,331.433655 
	C74.513542,336.199158 72.011215,338.902832 67.908997,341.230011 
	C65.576736,342.553070 62.988159,345.801239 62.985535,348.185211 
	C62.982906,350.567444 65.597473,353.658844 67.898544,355.168060 
	C71.162590,357.308899 73.962883,359.308289 73.983749,363.486511 
	C74.005684,367.878601 71.182999,370.014709 67.628769,372.129974 
	C65.416283,373.446686 62.867012,376.546387 62.951721,378.750458 
	C63.047096,381.232086 65.430344,384.414917 67.721870,385.839539 
	C71.232452,388.022034 74.057945,390.137054 73.981049,394.537628 
	C73.908142,398.709961 71.096863,400.680328 67.821899,402.804443 
	C65.527298,404.292694 62.947445,407.444824 62.977303,409.822693 
	C63.007271,412.209320 65.636398,415.379608 67.978279,416.739899 
	C72.039597,419.098846 74.568123,421.802032 73.868637,426.578766 
	C73.254173,430.774902 69.533455,433.531647 64.302200,433.644287 
	C57.822330,433.783844 51.336601,433.651398 44.404976,433.484039 
z"/>
<path fill="#465A60" opacity="1.000000" stroke="none" 
	d="
M110.225739,473.226440 
	C112.345772,472.273163 114.181282,471.054749 116.021599,471.047424 
	C141.131699,470.947723 166.242493,471.014404 191.353088,471.054810 
	C191.661041,471.055298 191.968719,471.247528 192.675934,471.483551 
	C192.675934,478.030792 192.675934,484.710449 192.675934,491.636475 
	C164.438858,491.636475 136.437881,491.636475 106.917053,491.636475 
	C107.984177,485.249969 108.963806,479.387146 110.225739,473.226440 
z"/>
<path fill="#FCFCFC" opacity="1.000000" stroke="none" 
	d="
M178.701202,321.300232 
	C181.272675,323.682434 183.583786,325.825409 186.263519,328.310211 
	C172.976334,340.063538 159.901306,351.629181 146.013931,363.913422 
	C146.013931,355.388550 146.013992,347.968445 146.013931,340.548340 
	C146.013809,328.059845 146.589508,315.535828 145.822220,303.094635 
	C145.258362,293.951782 149.276337,288.811707 156.876953,285.331238 
	C157.013535,285.479492 157.241241,285.623413 157.222931,285.721344 
	C154.617783,299.649994 162.732468,308.079681 172.508591,315.710510 
	C174.602402,317.344879 176.469391,319.269867 178.701202,321.300232 
z"/>
<path fill="#F6AC9C" opacity="1.000000" stroke="none" 
	d="
M317.841858,200.786987 
	C312.850281,206.231018 307.009583,208.794373 299.636658,208.612686 
	C299.636658,190.647797 299.636658,172.913483 299.636658,155.197784 
	C308.079010,153.481659 318.314392,158.879990 321.240692,168.127853 
	C324.703156,179.070099 325.619232,190.361099 317.841858,200.786987 
z"/>
<path fill="#FACCBE" opacity="1.000000" stroke="none" 
	d="
M103.844017,155.634338 
	C106.629662,155.092712 109.054436,154.710266 111.847778,154.269669 
	C111.847778,172.576508 111.847778,190.450836 111.847778,208.317169 
	C101.471939,208.974060 91.404625,202.537277 89.500046,192.450562 
	C88.175339,185.434891 88.269905,177.805420 89.482956,170.751526 
	C90.751961,163.372375 96.226120,158.370865 103.844017,155.634338 
z"/>
<path fill="#FCCDBE" opacity="1.000000" stroke="none" 
	d="
M39.996834,308.974884 
	C35.739128,309.335022 31.481426,309.695160 26.537477,310.113312 
	C26.537477,303.901703 26.536463,297.855743 26.537754,291.809814 
	C26.539133,285.350220 26.585005,278.890289 26.529863,272.431183 
	C26.495249,268.376617 28.025475,266.066376 32.760750,267.144226 
	C38.194820,274.526001 39.485577,282.274323 39.129494,290.685883 
	C38.872398,296.759094 39.669758,302.876953 39.996834,308.974884 
z"/>
<path fill="#F4C8BA" opacity="1.000000" stroke="none" 
	d="
M187.197968,308.778503 
	C184.605820,306.412445 182.503922,303.933777 179.895554,302.230957 
	C172.664200,297.510040 170.789719,291.004211 172.909439,282.671448 
	C179.363556,282.994202 186.036850,283.327942 192.922058,283.672272 
	C192.922058,293.622040 192.922058,303.342163 192.922058,313.971954 
	C190.765671,312.017975 189.111374,310.518982 187.197968,308.778503 
z"/>
<path fill="#F7B0A0" opacity="1.000000" stroke="none" 
	d="
M40.444366,309.094971 
	C39.669758,302.876953 38.872398,296.759094 39.129494,290.685883 
	C39.485577,282.274323 38.194820,274.526001 33.048759,267.305328 
	C42.151024,267.546173 49.325466,274.573212 49.801960,284.149933 
	C50.205620,292.262787 49.885189,300.411652 49.885189,309.215057 
	C46.732838,309.215057 43.812370,309.215057 40.444366,309.094971 
z"/>
<path fill="#A14E3D" opacity="1.000000" stroke="none" 
	d="
M218.477386,22.207624 
	C210.528198,22.474003 202.131638,22.617479 193.404175,22.532185 
	C201.392212,22.230518 209.711105,22.157621 218.477386,22.207624 
z"/>
<path fill="#020504" opacity="1.000000" stroke="none" 
	d="
M392.469910,360.347412 
	C402.965057,366.688293 407.956329,377.335876 405.672241,388.006165 
	C403.316742,399.010101 394.778381,407.593597 383.092285,407.984406 
	C362.658905,408.667664 342.161896,408.639923 321.733734,407.837128 
	C309.694672,407.364044 300.328766,395.871338 300.054321,383.696442 
	C299.770569,371.107941 308.575195,359.848724 320.734283,358.066589 
	C326.617371,357.204285 332.667145,357.253754 338.640137,357.274567 
	C353.778870,357.327301 368.919739,357.486084 384.052429,357.882629 
	C386.767700,357.953796 389.447876,359.365234 392.469910,360.347412 
M323.928406,393.108185 
	C336.281250,393.083038 348.634064,393.057922 361.642456,393.208252 
	C362.085052,393.132935 362.527618,393.057617 363.885864,393.229889 
	C369.540192,393.237549 375.199463,393.396637 380.847443,393.210785 
	C386.632263,393.020325 390.713684,389.003967 391.020538,383.623199 
	C391.346710,377.904053 387.649963,373.077698 381.747742,372.708160 
	C375.484375,372.316010 369.167175,372.783905 362.003448,372.575104 
	C350.058685,372.519775 338.112946,372.350189 326.169617,372.456970 
	C320.135590,372.510895 316.079834,376.035492 315.184540,381.338348 
	C314.326385,386.421387 317.316742,390.806946 323.928406,393.108185 
z"/>
<path fill="#060404" opacity="1.000000" stroke="none" 
	d="
M231.645187,242.715607 
	C215.896042,251.802612 199.735458,251.574936 183.970993,244.857605 
	C172.935104,240.155167 167.527786,230.238388 166.143738,218.375534 
	C165.450577,212.434265 168.198090,208.474411 172.933838,208.063492 
	C177.496262,207.667618 180.462753,210.812042 181.056076,216.672928 
	C182.077377,226.761292 189.526520,233.750092 199.605667,233.977127 
	C203.766083,234.070847 207.932007,234.064255 212.092651,233.974670 
	C221.645905,233.768997 228.786316,227.523560 230.348312,218.105804 
	C231.627945,210.390518 234.397171,207.298355 239.287567,208.124115 
	C244.260391,208.963791 246.165924,212.987213 245.146515,220.426514 
	C243.880524,229.665237 239.242950,236.877396 231.645187,242.715607 
z"/>
<path fill="#060404" opacity="1.000000" stroke="none" 
	d="
M201.032288,174.884262 
	C202.712219,176.623901 204.176620,178.601562 206.072800,179.191513 
	C211.445892,180.863220 213.880829,183.662064 213.074188,188.306198 
	C212.342865,192.516754 209.019745,194.568359 203.620636,194.142563 
	C193.324722,193.330612 185.387695,183.848297 186.011642,173.105255 
	C186.598434,163.001801 195.498276,154.569611 205.394302,154.727722 
	C209.594467,154.794830 212.391266,156.665619 213.091812,160.951920 
	C213.775467,165.134903 211.595291,168.330673 207.200958,169.344070 
	C204.167389,170.043640 201.205475,170.510498 201.032288,174.884262 
z"/>
<path fill="#0A0807" opacity="1.000000" stroke="none" 
	d="
M255.505539,145.234558 
	C258.434937,153.877441 258.285065,162.375244 255.957611,171.240875 
	C253.059448,173.611633 250.186508,175.033691 246.657471,173.227814 
	C242.953049,171.332184 242.368484,168.034485 242.394470,164.375488 
	C242.424011,160.213852 242.316010,156.049500 242.426178,151.890533 
	C242.643051,143.703506 248.211212,140.751572 255.505539,145.234558 
z"/>
<path fill="#080505" opacity="1.000000" stroke="none" 
	d="
M165.699310,144.132614 
	C167.074249,146.494385 168.795380,148.599854 168.987396,150.836578 
	C169.427551,155.963989 169.224472,161.158157 169.087387,166.320053 
	C168.968658,170.790878 166.176590,173.751083 162.190399,174.000793 
	C157.960327,174.265778 154.468185,171.386597 154.227844,166.808868 
	C153.939957,161.325531 153.896469,155.800537 154.221100,150.321655 
	C154.574554,144.356842 159.085434,141.935623 165.699310,144.132614 
z"/>
<path fill="#080503" opacity="1.000000" stroke="none" 
	d="
M425.448700,155.811157 
	C436.042328,155.788925 442.066376,150.639648 443.592468,140.700485 
	C444.515198,134.690964 447.435120,131.673965 451.845947,132.172592 
	C456.581604,132.707962 459.067047,136.678467 458.398041,142.639465 
	C456.576843,158.865707 443.465729,170.887009 427.543457,170.929291 
	C411.589050,170.971649 398.396942,159.178726 396.268585,142.971497 
	C395.472900,136.912674 398.182220,132.616791 403.081177,132.169525 
	C407.532593,131.763138 410.352570,134.845871 411.165314,140.836746 
	C412.279175,149.046936 416.973328,153.986801 425.448700,155.811157 
z"/>
<path fill="#0A0704" opacity="1.000000" stroke="none" 
	d="
M397.833252,118.185822 
	C394.258209,114.288483 392.707886,103.825806 395.697388,100.338570 
	C397.344360,98.417366 400.807281,96.866714 403.221008,97.145409 
	C405.345642,97.390717 408.270264,100.116005 408.842285,102.275627 
	C409.787170,105.843063 409.561890,109.899857 409.026886,113.635429 
	C408.323486,118.546219 404.067322,120.190414 397.833252,118.185822 
z"/>
<path fill="#090603" opacity="1.000000" stroke="none" 
	d="
M445.250153,110.594238 
	C445.335907,107.681374 445.104126,105.134811 445.582397,102.729439 
	C446.405579,98.589775 449.210846,96.445847 453.470032,96.763802 
	C457.509491,97.065338 459.790375,99.458076 460.146332,103.482651 
	C460.335968,105.626244 460.271088,107.796532 460.247864,109.953987 
	C460.182068,116.066841 457.805511,119.182442 453.116364,119.373207 
	C448.674683,119.553902 446.153412,116.877167 445.250153,110.594238 
z"/>
<path fill="#6AEEBE" opacity="1.000000" stroke="none" 
	d="
M362.970215,392.982300 
	C362.527618,393.057617 362.085052,393.132935 361.027710,392.817688 
	C350.022797,392.285187 339.632935,392.093872 329.242340,392.043030 
	C327.171844,392.032867 325.098724,392.560059 323.026794,392.839508 
	C317.316742,390.806946 314.326385,386.421387 315.184540,381.338348 
	C316.079834,376.035492 320.135590,372.510895 326.169617,372.456970 
	C338.112946,372.350189 350.058685,372.519775 362.480774,373.073792 
	C366.011292,380.040497 364.766449,386.511230 362.970215,392.982300 
z"/>
<path fill="#07EAA2" opacity="1.000000" stroke="none" 
	d="
M363.428040,393.106079 
	C364.766449,386.511230 366.011292,380.040497 362.915771,373.224335 
	C369.167175,372.783905 375.484375,372.316010 381.747742,372.708160 
	C387.649963,373.077698 391.346710,377.904053 391.020538,383.623199 
	C390.713684,389.003967 386.632263,393.020325 380.847443,393.210785 
	C375.199463,393.396637 369.540192,393.237549 363.428040,393.106079 
z"/>
<path fill="#7DEBC3" opacity="1.000000" stroke="none" 
	d="
M323.477600,392.973846 
	C325.098724,392.560059 327.171844,392.032867 329.242340,392.043030 
	C339.632935,392.093872 350.022797,392.285187 360.699921,392.729980 
	C348.634064,393.057922 336.281250,393.083038 323.477600,392.973846 
z"/>
</svg>